HIERARCHY
ROOT Hips
{
  OFFSET 5.84602e-005 68.8428 3.50346
  CHANNELS 6 Xposition Yposition Zposition Zrotation Xrotation Yrotation
  JOINT Spine
  {
    OFFSET 0 8.597 -4.6522
    CHANNELS 3 Zrotation Xrotation Yrotation
    JOINT Spine1
    {
      OFFSET 0 7.8454 0.4098
      CHANNELS 3 Zrotation Xrotation Yrotation
      JOINT Spine2
      {
        OFFSET 0 9.7078 -2.1609
        CHANNELS 3 Zrotation Xrotation Yrotation
        JOINT Neck
        {
          OFFSET 0 21.8761 -0.4549
          CHANNELS 3 Zrotation Xrotation Yrotation
          JOINT Head
          {
            OFFSET 0 12.3537 3.3602
            CHANNELS 3 Zrotation Xrotation Yrotation
            End Site
            {
              OFFSET 0.0001 18.9506 0.5657
            }
          }
        }
        JOINT LeftShoulder
        {
          OFFSET 2.2086 21.1115 7.2329
          CHANNELS 3 Zrotation Xrotation Yrotation
          JOINT LeftArm
          {
            OFFSET 13.1193 3.0282 -4.8998
            CHANNELS 3 Zrotation Xrotation Yrotation
            JOINT LeftForeArm
            {
              OFFSET 27.4081 -0.0973053 -0.2375
              CHANNELS 3 Zrotation Xrotation Yrotation
              JOINT LeftHand
              {
                OFFSET 22.8641 0.0662994 -0.1369
                CHANNELS 3 Zrotation Xrotation Yrotation
                JOINT LeftHandIndex1
                {
                  OFFSET 8.8614 0.775009 2.4612
                  CHANNELS 3 Zrotation Xrotation Yrotation
                  JOINT LeftHandIndex2
                  {
                    OFFSET 3.3146 -0.808304 0.5841
                    CHANNELS 3 Zrotation Xrotation Yrotation
                    JOINT LeftHandIndex3
                    {
                      OFFSET 2.2628 -0.552002 0.3989
                      CHANNELS 3 Zrotation Xrotation Yrotation
                      End Site
                      {
                        OFFSET 1.6102 -0.4807 0.2612
                      }
                    }
                  }
                }
                JOINT LeftHandMiddle1
                {
                  OFFSET 8.9937 0.895004 0.2143
                  CHANNELS 3 Zrotation Xrotation Yrotation
                  JOINT LeftHandMiddle2
                  {
                    OFFSET 4.0984 0.0113983 -0.0242
                    CHANNELS 3 Zrotation Xrotation Yrotation
                    JOINT LeftHandMiddle3
                    {
                      OFFSET 2.2716 0.00689697 -0.0138001
                      CHANNELS 3 Zrotation Xrotation Yrotation
                      End Site
                      {
                        OFFSET 2.0404 -0.1441 0.0027
                      }
                    }
                  }
                }
                JOINT LeftHandRing1
                {
                  OFFSET 8.5234 0.597198 -2.0164
                  CHANNELS 3 Zrotation Xrotation Yrotation
                  JOINT LeftHandRing2
                  {
                    OFFSET 3.7188 -0.188293 -0.2328
                    CHANNELS 3 Zrotation Xrotation Yrotation
                    JOINT LeftHandRing3
                    {
                      OFFSET 2.1191 -0.106598 -0.1332
                      CHANNELS 3 Zrotation Xrotation Yrotation
                      End Site
                      {
                        OFFSET 1.8737 -0.2304 -0.0886
                      }
                    }
                  }
                }
                JOINT LeftHandPinky1
                {
                  OFFSET 7.9094 -0.601089 -3.4825
                  CHANNELS 3 Zrotation Xrotation Yrotation
                  JOINT LeftHandPinky2
                  {
                    OFFSET 2.2874 -0.477005 -0.6314
                    CHANNELS 3 Zrotation Xrotation Yrotation
                    JOINT LeftHandPinky3
                    {
                      OFFSET 1.6774 -0.349396 -0.4633
                      CHANNELS 3 Zrotation Xrotation Yrotation
                      End Site
                      {
                        OFFSET 1.4888 -0.4091 -0.3416
                      }
                    }
                  }
                }
                JOINT LeftHandThumb1
                {
                  OFFSET 1.833 -1.3875 1.3896
                  CHANNELS 3 Zrotation Xrotation Yrotation
                  JOINT LeftHandThumb2
                  {
                    OFFSET 3.4129 -1.121 2.5732
                    CHANNELS 3 Zrotation Xrotation Yrotation
                    JOINT LeftHandThumb3
                    {
                      OFFSET 2.2474 -0.804199 1.6192
                      CHANNELS 3 Zrotation Xrotation Yrotation
                      End Site
                      {
                        OFFSET 1.6527 -0.5689 1.1317
                      }
                    }
                  }
                }
              }
            }
          }
        }
        JOINT RightShoulder
        {
          OFFSET -2.2086 21.1115 7.2329
          CHANNELS 3 Zrotation Xrotation Yrotation
          JOINT RightArm
          {
            OFFSET -13.1216 3.0287 -4.9007
            CHANNELS 3 Zrotation Xrotation Yrotation
            JOINT RightForeArm
            {
              OFFSET -27.4081 -0.0973053 -0.2375
              CHANNELS 3 Zrotation Xrotation Yrotation
              JOINT RightHand
              {
                OFFSET -22.8641 0.0664063 -0.1369
                CHANNELS 3 Zrotation Xrotation Yrotation
                JOINT RightHandIndex1
                {
                  OFFSET -8.8614 0.774994 2.4612
                  CHANNELS 3 Zrotation Xrotation Yrotation
                  JOINT RightHandIndex2
                  {
                    OFFSET -3.3146 -0.808304 0.5841
                    CHANNELS 3 Zrotation Xrotation Yrotation
                    JOINT RightHandIndex3
                    {
                      OFFSET -2.2628 -0.552002 0.3989
                      CHANNELS 3 Zrotation Xrotation Yrotation
                      End Site
                      {
                        OFFSET -1.6102 -0.4807 0.2612
                      }
                    }
                  }
                }
                JOINT RightHandMiddle1
                {
                  OFFSET -8.9937 0.894989 0.2143
                  CHANNELS 3 Zrotation Xrotation Yrotation
                  JOINT RightHandMiddle2
                  {
                    OFFSET -4.0984 0.0113983 -0.0242
                    CHANNELS 3 Zrotation Xrotation Yrotation
                    JOINT RightHandMiddle3
                    {
                      OFFSET -2.2716 0.00691223 -0.0138001
                      CHANNELS 3 Zrotation Xrotation Yrotation
                      End Site
                      {
                        OFFSET -2.0404 -0.1441 0.0027
                      }
                    }
                  }
                }
                JOINT RightHandRing1
                {
                  OFFSET -8.5234 0.597198 -2.0164
                  CHANNELS 3 Zrotation Xrotation Yrotation
                  JOINT RightHandRing2
                  {
                    OFFSET -3.7188 -0.188309 -0.2328
                    CHANNELS 3 Zrotation Xrotation Yrotation
                    JOINT RightHandRing3
                    {
                      OFFSET -2.1191 -0.106598 -0.1332
                      CHANNELS 3 Zrotation Xrotation Yrotation
                      End Site
                      {
                        OFFSET -1.8737 -0.2304 -0.0886
                      }
                    }
                  }
                }
                JOINT RightHandPinky1
                {
                  OFFSET -7.9094 -0.601105 -3.4825
                  CHANNELS 3 Zrotation Xrotation Yrotation
                  JOINT RightHandPinky2
                  {
                    OFFSET -2.2874 -0.477005 -0.6314
                    CHANNELS 3 Zrotation Xrotation Yrotation
                    JOINT RightHandPinky3
                    {
                      OFFSET -1.6774 -0.349396 -0.4633
                      CHANNELS 3 Zrotation Xrotation Yrotation
                      End Site
                      {
                        OFFSET -1.4888 -0.4091 -0.3416
                      }
                    }
                  }
                }
                JOINT RightHandThumb1
                {
                  OFFSET -1.833 -1.38751 1.3896
                  CHANNELS 3 Zrotation Xrotation Yrotation
                  JOINT RightHandThumb2
                  {
                    OFFSET -3.41299 -1.12099 2.5732
                    CHANNELS 3 Zrotation Xrotation Yrotation
                    JOINT RightHandThumb3
                    {
                      OFFSET -2.24741 -0.804108 1.6192
                      CHANNELS 3 Zrotation Xrotation Yrotation
                      End Site
                      {
                        OFFSET -1.6527 -0.5689 1.1317
                      }
                    }
                  }
                }
              }
            }
          }
        }
      }
    }
  }
  JOINT RightUpLeg
  {
    OFFSET -9.1966 3.8861 -0.7581
    CHANNELS 3 Zrotation Xrotation Yrotation
    JOINT RightLeg
    {
      OFFSET -0.7359 -41.0265 0
      CHANNELS 3 Zrotation Xrotation Yrotation
      JOINT RightFoot
      {
        OFFSET 0 -40.2855 0
        CHANNELS 3 Zrotation Xrotation Yrotation
        JOINT RightToeBase
        {
          OFFSET 0 -5.6122 11.7359
          CHANNELS 3 Zrotation Xrotation Yrotation
          End Site
          {
            OFFSET 0 0 7.8731
          }
        }
      }
    }
  }
  JOINT LeftUpLeg
  {
    OFFSET 9.1965 3.8864 -0.7581
    CHANNELS 3 Zrotation Xrotation Yrotation
    JOINT LeftLeg
    {
      OFFSET 0.7359 -41.0268 0
      CHANNELS 3 Zrotation Xrotation Yrotation
      JOINT LeftFoot
      {
        OFFSET 0 -40.2855 0
        CHANNELS 3 Zrotation Xrotation Yrotation
        JOINT LeftToeBase
        {
          OFFSET 0 -5.6122 11.7359
          CHANNELS 3 Zrotation Xrotation Yrotation
          End Site
          {
            OFFSET 0 0 7.8731
          }
        }
      }
    }
  }
}
MOTION
Frames:	6
Frame Time:	0.0333333
-0.614347 56.1652 5.80669 -0 -7.65139 -0 -0.646749 2.51846 -0.20551 -1.28632 5.03926 -0.383076 -1.28632 5.03927 -0.383076 2.61955e-005 32.2289 -4.87913e-006 -6.25097e-007 -23.5324 1.51876e-007 10.6321 -7.20383 -5.65358 -53.5898 -1.0914 -14.2051 -19.8924 31.235 -73.8087 -10.2893 -13.6088 17.3085 3.41758e-006 -1.01081e-006 7.56499e-007 -3.88182e-007 3.09712e-007 4.04247e-007 5.17576e-007 -4.12949e-007 -5.38996e-007 3.41758e-006 -1.01081e-006 7.56499e-007 -0.0146596 -8.95146e-005 6.37039e-008 5.17575e-007 -4.1288e-007 -5.39049e-007 3.41758e-006 -1.01081e-006 7.56499e-007 -0.0187419 -0.0011826 5.83502e-005 5.1757e-007 -4.12861e-007 -5.39069e-007 3.41758e-006 -1.01081e-006 7.56499e-007 -0.0122726 -0.00324427 0.000677628 5.17558e-007 -4.12894e-007 -5.39055e-007 3.41758e-006 -1.01081e-006 7.56499e-007 -3.88182e-007 3.09712e-007 4.04247e-007 5.17576e-007 -4.12949e-007 -5.38996e-007 -11.438 -7.37144 5.02816 53.1707 -1.28078 14.7132 19.6408 30.2458 72.018 13.4909 -13.5202 -14.687 2.55928e-007 2.25181e-007 -2.56605e-007 2.55928e-007 2.25181e-007 -2.56605e-007 -1.76556e-031 -6.36111e-015 -1.59028e-015 2.55928e-007 2.25181e-007 -2.56605e-007 0.01497 -8.97887e-005 -7.2703e-007 -6.36111e-015 1.27222e-014 -4.77083e-015 2.55928e-007 2.25181e-007 -2.56605e-007 0.0189798 -0.00119622 -6.03358e-005 3.18055e-015 -3.18055e-015 4.77083e-015 2.55928e-007 2.25181e-007 -2.56605e-007 0.0122861 -0.00325496 -0.000679035 -3.18055e-015 -9.54166e-015 7.95139e-015 2.55928e-007 2.25181e-007 -2.56605e-007 2.55928e-007 2.25181e-007 -2.56605e-007 -1.76556e-031 -6.36111e-015 -1.59028e-015 -113.723 -16.0079 -163.618 -150.959 20.0928 108.524 -1.00327 -14.6358 43.3975 4.77083e-015 3.18055e-015 6.36111e-015 113.73 -16.0286 163.611 150.997 20.0936 -108.561 1.00916 -14.6409 -43.3991 1.43722e-006 -2.51145e-007 -3.3311e-006 
-0.614345 56.0478 5.72856 -0 -7.30096 -0 -0.646053 2.30853 -0.20798 -1.28528 4.61935 -0.390348 -1.28528 4.61935 -0.390348 9.01882e-006 32.6123 -1.82562e-005 6.34263e-007 -23.4139 1.10535e-007 10.7002 -6.75266 -5.44313 -53.7629 -1.01234 -14.124 -19.9452 31.3941 -73.9975 -10.3727 -13.5795 17.5409 -5.5002e-007 4.3876e-007 5.7259e-007 -2.66922e-007 2.12928e-007 2.77875e-007 -9.86801e-007 7.87187e-007 1.02729e-006 -5.5002e-007 4.3876e-007 5.7259e-007 -0.0146085 -8.37905e-005 -3.165e-007 -9.868e-007 7.87056e-007 1.02739e-006 -5.5002e-007 4.3876e-007 5.7259e-007 -0.0187219 -0.00117201 5.43972e-005 -9.8679e-007 7.87019e-007 1.02743e-006 -5.5002e-007 4.3876e-007 5.7259e-007 -0.0122348 -0.00324075 0.000671478 -9.86768e-007 7.87083e-007 1.02741e-006 -5.5002e-007 4.3876e-007 5.7259e-007 -2.66922e-007 2.12928e-007 2.77875e-007 -9.86801e-007 7.87187e-007 1.02729e-006 -11.5198 -6.93589 4.79275 53.3588 -1.19644 14.6564 19.696 30.3945 72.1734 13.6389 -13.4779 -14.8966 -9.72179e-007 -4.29783e-007 -2.21683e-008 -5.17218e-008 -4.70929e-007 1.04842e-006 -1.48413e-006 -8.80138e-007 4.9096e-007 -9.72179e-007 -4.29783e-007 -2.21683e-008 0.014973 -8.98971e-005 -2.18177e-006 -1.02389e-006 -9.00577e-007 1.02637e-006 -9.72179e-007 -4.29783e-007 -2.21683e-008 0.0189968 -0.00119812 -5.67454e-005 -1.02388e-006 -9.00542e-007 1.02642e-006 -9.72179e-007 -4.29783e-007 -2.21683e-008 0.012289 -0.00325724 -0.000674161 -1.02386e-006 -9.00609e-007 1.02638e-006 -9.72179e-007 -4.29783e-007 -2.21683e-008 -5.17218e-008 -4.70929e-007 1.04842e-006 -1.48413e-006 -8.80138e-007 4.9096e-007 -114.184 -16.2071 -164.067 -150.964 20.0897 108.515 -0.778962 -14.4211 43.14 5.86076e-008 -2.01541e-007 3.86121e-008 114.191 -16.228 164.061 151.002 20.0905 -108.552 0.784991 -14.4262 -43.1407 5.87366e-006 -9.1682e-007 -5.03172e-007 
-0.61434 55.9306 5.65025 -0 -6.95055 -0 -0.645315 2.09874 -0.210428 -1.2842 4.1998 -0.397573 -1.2842 4.1998 -0.397573 1.24123e-005 32.9943 -1.69071e-005 -2.53929e-007 -23.2954 -1.82023e-007 10.7665 -6.30139 -5.23338 -53.9361 -0.933531 -14.0427 -19.9976 31.5534 -74.1866 -10.4562 -13.5506 17.7732 1.94161e-007 -1.54852e-007 -2.0206e-007 -5.66302e-008 4.51651e-008 5.89341e-008 4.40906e-007 -3.51643e-007 -4.58844e-007 1.94161e-007 -1.54852e-007 -2.0206e-007 -0.0146015 -9.01318e-005 -3.98195e-006 4.36861e-007 -3.48359e-007 -4.5468e-007 1.94161e-007 -1.54852e-007 -2.0206e-007 -0.0187979 -0.00117999 6.37887e-005 4.36856e-007 -3.48342e-007 -4.54697e-007 1.94161e-007 -1.54852e-007 -2.0206e-007 -0.0123311 -0.00326767 0.000679509 4.36846e-007 -3.4837e-007 -4.54685e-007 1.94161e-007 -1.54852e-007 -2.0206e-007 -5.66302e-008 4.51651e-008 5.89341e-008 4.40906e-007 -3.51643e-007 -4.58844e-007 -11.5997 -6.50017 4.55818 53.547 -1.11227 14.5994 19.7508 30.5433 72.3289 13.7871 -13.4361 -15.1063 -6.36111e-015 -4.77083e-015 4.77083e-015 5.12053e-007 4.50331e-007 -5.13056e-007 -3.18055e-015 3.18055e-015 1.59028e-015 -6.36111e-015 -4.77083e-015 4.77083e-015 0.0149222 -8.96021e-005 2.35219e-006 -3.18055e-015 4.77083e-015 6.36111e-015 -6.36111e-015 -4.77083e-015 4.77083e-015 0.0189486 -0.00119318 -6.22348e-005 6.36111e-015 -1.11319e-014 1.27222e-014 -6.36111e-015 -4.77083e-015 4.77083e-015 0.0123107 -0.00326163 -0.000685197 3.18055e-015 -1.43125e-014 6.36111e-015 -6.36111e-015 -4.77083e-015 4.77083e-015 5.12053e-007 4.50331e-007 -5.13056e-007 -3.18055e-015 3.18055e-015 1.59028e-015 -114.647 -16.403 -164.518 -150.969 20.0867 108.506 -0.553784 -14.2072 42.882 1.6711e-006 2.67346e-007 8.57431e-009 114.655 -16.4241 164.513 151.008 20.0874 -108.542 0.559973 -14.2122 -42.8817 3.3423e-006 -5.33597e-007 1.7592e-008 
-0.614339 55.8136 5.57176 -0 -6.60016 -0 -0.644522 1.88921 -0.212851 -1.28306 3.7807 -0.404743 -1.28306 3.7807 -0.404743 1.07752e-005 33.3749 -3.10015e-005 -5.65073e-007 -23.1769 -3.44518e-007 10.8311 -5.84988 -5.02438 -54.1093 -0.854981 -13.9611 -20.0494 31.7128 -74.3758 -10.5398 -13.522 18.0056 -1.98243e-007 1.58068e-007 2.06241e-007 -4.04577e-008 3.22588e-008 4.209e-008 -8.49613e-008 6.77435e-008 8.8389e-008 -1.98243e-007 1.58068e-007 2.06241e-007 -0.0145893 -9.06693e-005 -7.27344e-007 -8.49612e-008 6.77322e-008 8.83977e-008 -1.98243e-007 1.58068e-007 2.06241e-007 -0.018718 -0.00116702 5.82635e-005 -8.49603e-008 6.77291e-008 8.8401e-008 -1.98243e-007 1.58068e-007 2.06241e-007 -0.0122673 -0.00324708 0.000674429 -8.49584e-008 6.77346e-008 8.83987e-008 -1.98243e-007 1.58068e-007 2.06241e-007 -4.04577e-008 3.22588e-008 4.209e-008 -8.49613e-008 6.77435e-008 8.8389e-008 -11.6777 -6.06412 4.32444 53.7353 -1.02831 14.542 19.8051 30.6923 72.4844 13.9355 -13.3948 -15.316 -8.96284e-007 -7.88001e-007 8.97741e-007 1.28041e-007 1.12572e-007 -1.28249e-007 6.36111e-015 -1.59028e-015 -0 -8.96284e-007 -7.88001e-007 8.97741e-007 0.014996 -9.23554e-005 1.72674e-006 -4.41391e-032 1.59028e-015 1.59028e-015 -8.96284e-007 -7.88001e-007 8.97741e-007 0.0190656 -0.00119699 -5.49432e-005 -3.18055e-015 6.36111e-015 -0 -8.96284e-007 -7.88001e-007 8.97741e-007 0.0122265 -0.00323473 -0.000671913 9.54166e-015 -6.36111e-015 1.59028e-015 -8.96284e-007 -7.88001e-007 8.97741e-007 1.28041e-007 1.12572e-007 -1.28249e-007 6.36111e-015 -1.59028e-015 -0 -115.112 -16.5953 -164.971 -150.975 20.0836 108.496 -0.327799 -13.9938 42.6233 -1.17229e-007 4.03162e-007 -7.67637e-008 115.121 -16.6165 164.967 151.013 20.0844 -108.533 0.334222 -13.9987 -42.6222 6.69774e-007 1.04199e-007 -3.83225e-006 
-0.614332 55.6968 5.4931 -0 -6.2498 -0 -0.643681 1.67995 -0.215249 -1.28187 3.36224 -0.411859 -1.28187 3.36223 -0.411859 -1.27122e-005 33.7567 -9.35903e-006 -3.18255e-007 -23.0584 -4.467e-007 10.8941 -5.39827 -4.81606 -54.2828 -0.776671 -13.8793 -20.1007 31.8723 -74.565 -10.6236 -13.4937 18.2379 5.54377e-007 -4.41903e-007 -5.76564e-007 -9.34753e-007 7.45107e-007 9.72162e-007 3.02216e-006 -1.66066e-006 -7.17911e-007 5.54377e-007 -4.41903e-007 -5.76564e-007 -0.0146431 -8.49944e-005 -3.67333e-006 4.02851e-006 -1.49529e-006 1.23106e-007 5.54377e-007 -4.41903e-007 -5.76564e-007 -0.0187335 -0.00117969 6.22393e-005 3.0205e-006 -1.66065e-006 -7.18208e-007 5.54377e-007 -4.41903e-007 -5.76564e-007 -0.0122506 -0.00324296 0.000680107 4.02847e-006 -1.49527e-006 1.23016e-007 5.54377e-007 -4.41903e-007 -5.76564e-007 -9.34753e-007 7.45107e-007 9.72162e-007 3.02216e-006 -1.66066e-006 -7.17911e-007 -11.7539 -5.62788 4.09151 53.9237 -0.944532 14.4844 19.8591 30.8414 72.64 14.0839 -13.354 -15.5258 9.54166e-015 -1.59028e-015 6.36111e-015 1.59028e-014 3.18055e-015 -0 -3.84207e-007 -3.37667e-007 3.8471e-007 9.54166e-015 -1.59028e-015 6.36111e-015 0.0149797 -8.81699e-005 5.51245e-006 -3.84205e-007 -3.37617e-007 3.84754e-007 9.54166e-015 -1.59028e-015 6.36111e-015 0.0189903 -0.00119601 -5.69843e-005 7.32328e-008 -3.5829e-007 9.27852e-007 9.54166e-015 -1.59028e-015 6.36111e-015 0.0122897 -0.00324632 -0.000675862 7.25592e-008 -3.58556e-007 9.27766e-007 9.54166e-015 -1.59028e-015 6.36111e-015 1.59028e-014 3.18055e-015 -0 -3.84207e-007 -3.37667e-007 3.8471e-007 -115.58 -16.7841 -165.426 -150.98 20.0807 108.487 -0.101052 -13.781 42.364 -1.61282e-006 -4.68895e-007 3.06068e-008 115.589 -16.8055 165.423 151.018 20.0814 -108.523 0.107564 -13.786 -42.362 1.61293e-006 -4.68368e-007 -3.04128e-008 
-0.614326 55.5802 5.41428 -0 -5.89947 -0 -0.642791 1.47107 -0.217619 -1.28062 2.94456 -0.418918 -1.28062 2.94456 -0.418918 -2.61709e-005 34.1364 1.59133e-005 8.11041e-008 -22.9399 1.11629e-007 10.9553 -4.94654 -4.60843 -54.4563 -0.698613 -13.7973 -20.1514 32.0319 -74.7545 -10.7074 -13.4658 18.4703 3.29857e-007 -2.6285e-007 -3.42958e-007 -7.68991e-008 6.1278e-008 7.99534e-008 3.01525e-007 -2.40274e-007 -3.13501e-007 3.29857e-007 -2.6285e-007 -3.42958e-007 -0.0145743 -9.10928e-005 7.27815e-007 3.01525e-007 -2.40234e-007 -3.13532e-007 3.29857e-007 -2.6285e-007 -3.42958e-007 -0.0187173 -0.00117538 5.79269e-005 3.01522e-007 -2.40223e-007 -3.13544e-007 3.29857e-007 -2.6285e-007 -3.42958e-007 -0.0122173 -0.00323483 0.00066946 3.01515e-007 -2.40243e-007 -3.13535e-007 3.29857e-007 -2.6285e-007 -3.42958e-007 -7.68991e-008 6.1278e-008 7.99534e-008 3.01525e-007 -2.40274e-007 -3.13501e-007 -11.8282 -5.19144 3.85938 54.1121 -0.860948 14.4266 19.9127 30.9906 72.7957 14.2325 -13.3138 -15.7356 -3.84296e-007 -3.37604e-007 3.84684e-007 -3.84296e-007 -3.37604e-007 3.84684e-007 -7.68593e-007 -6.75208e-007 7.69368e-007 -3.84296e-007 -3.37604e-007 3.84684e-007 0.0149762 -8.77539e-005 3.96917e-006 -3.129e-007 -6.96097e-007 1.31582e-006 -3.84296e-007 -3.37604e-007 3.84684e-007 0.0190111 -0.00119241 -5.50672e-005 -3.12469e-007 -6.96165e-007 1.31584e-006 -3.84296e-007 -3.37604e-007 3.84684e-007 0.012305 -0.0032653 -0.000675416 -7.68563e-007 -6.75131e-007 7.69462e-007 -3.84296e-007 -3.37604e-007 3.84684e-007 -3.84296e-007 -3.37604e-007 3.84684e-007 -7.68593e-007 -6.75208e-007 7.69368e-007 -116.05 -16.9692 -165.883 -150.985 20.0777 108.478 0.126499 -13.5689 42.1042 -3.28131e-006 7.62209e-008 3.21151e-006 116.06 -16.9908 165.881 151.023 20.0784 -108.514 -0.119849 -13.5738 -42.1013 1.17079e-007 4.03276e-007 7.63851e-008 
